<?xml version="1.0" encoding="UTF-8"?>
<svg xmlns="http://www.w3.org/2000/svg" width="87" height="20" viewBox="0 0 87 20" fill="none">
  <path d="M76.6341 19.4902C75.663 18.7971 74.9249 17.873 74.4587 16.7949C74.0314 15.7937 73.876 14.7156 73.9925 13.6375C74.1479 12.3283 74.381 11.0577 74.6529 9.787C74.7306 9.70999 74.6529 9.59448 74.7306 9.51747C74.886 8.74737 75.1191 8.01578 75.2745 7.24569C75.3522 7.24569 75.4299 7.24569 75.5076 7.24569H75.4299C76.0903 7.28419 76.7507 7.3612 77.4111 7.39971C77.4111 7.43821 77.5276 7.43821 77.5664 7.39971C77.6053 7.39971 77.683 7.39971 77.7218 7.39971C77.7607 7.24569 77.8384 7.13017 77.9161 7.01466C77.7607 6.66812 77.5664 6.36008 77.3334 6.09055C77.1391 5.744 76.906 5.43597 76.6341 5.16643C76.4787 5.08942 76.3622 5.01241 76.2068 4.93541C76.0514 4.8584 75.8183 4.85839 75.5464 4.78139C75.2356 3.78026 74.7306 2.54811 74.4199 1.31596L74.8083 1.70101L76.168 3.04867L76.9837 3.70325C76.9837 3.89578 77.0226 4.0883 77.1003 4.28082C77.178 4.47335 77.2945 4.66587 77.4111 4.8584C77.8772 5.51298 78.1103 5.744 78.4988 6.39859C78.6541 6.32158 78.8095 6.24457 78.9649 6.16756C78.7318 6.05204 78.8095 5.32045 78.8095 5.32045C78.7707 4.93541 78.4211 4.58886 78.5765 4.16531C78.5765 4.16531 78.6541 3.97279 78.693 3.93428C78.693 3.70325 78.3822 3.58774 78.5765 3.35671C78.5765 3.35671 78.5376 3.20269 78.5376 3.12568C78.5376 2.70213 78.6153 2.24007 78.693 1.81652C78.8095 1.6625 78.9261 1.54699 79.0815 1.43147C79.5865 1.27745 80.0915 1.16194 80.5965 1.08493C80.5965 1.08493 80.6353 1.08493 80.713 1.08493C80.9461 1.08493 81.1792 0.892406 81.4123 0.969416C81.8007 1.31596 82.1504 1.70101 82.5 2.04755C82.7719 2.20157 82.8884 2.4711 83.0827 2.70213C83.1215 2.81764 83.2769 3.01017 83.1992 3.16419L83.0438 3.35671V4.24232C82.9273 4.31933 82.9661 4.43484 82.8884 4.47335C82.8884 4.74288 82.8496 4.93541 82.7719 5.12793C82.733 5.35896 82.6942 5.62849 82.6942 5.85952C82.6942 6.20606 82.7719 6.5526 82.9273 6.86064C83.0827 7.05317 83.2769 7.24569 83.3934 7.43821C83.8596 7.90027 84.2481 8.40083 84.5588 8.9784C85.1415 10.2491 85.5689 11.5967 85.8019 12.9444C85.9573 13.522 85.9962 14.0995 85.8019 14.6771C85.6077 14.9851 85.2969 15.2162 84.9085 15.3317C84.9085 15.3317 86.1516 16.9874 86.1516 17.2954C86.1516 17.4109 86.1515 17.5265 86.035 17.6035H80.5576C79.4699 18.6046 78.0714 19.2977 76.5564 19.4902" fill="black"></path>
  <path d="M81.3343 1.20044C81.6839 1.50848 81.9947 1.85502 82.3055 2.20156C82.4997 2.39409 82.6939 2.58661 82.8493 2.81764C82.927 2.93315 82.9658 3.04867 82.927 3.20269L82.8493 3.3182L82.7716 4.24231C82.7328 4.31932 82.7716 4.39633 82.6939 4.47334C82.6939 4.70437 82.6162 4.8969 82.5774 5.08942C82.5774 5.32045 82.4608 5.51297 82.4608 5.744C82.4608 6.12905 82.5385 6.5141 82.6939 6.86064C82.8105 6.97615 82.8105 7.09167 82.927 7.16868C83.2378 7.47671 83.5097 7.82326 83.8205 8.1698L84.1701 8.55485C84.1701 8.59335 84.2089 8.63186 84.2478 8.67036C85.0247 9.86401 85.2578 11.3272 85.6074 12.7134C85.8017 13.2909 85.8017 13.907 85.6463 14.5231C85.3355 14.8696 84.947 15.1007 84.4809 15.2547C84.947 15.9093 85.4909 16.5638 85.9182 17.2569C85.9182 17.2569 85.9182 17.2954 85.9182 17.3724C85.6851 17.3724 85.3743 17.3339 85.1413 17.3339C84.714 16.6793 84.2866 16.0633 83.8205 15.4472H83.7816C83.6651 15.4472 83.5097 15.4472 83.3932 15.4472C83.3543 15.4857 83.3543 15.6012 83.3155 15.6782C83.2766 15.7552 83.3155 15.8322 83.2378 15.9093C83.3155 16.0248 83.3543 16.1403 83.4709 16.2558C83.6262 16.6023 83.7816 16.9874 83.937 17.3724H81.1789C81.1012 17.3724 81.0235 17.3724 80.9458 17.3724H80.7127C80.7904 17.3339 80.8293 17.2184 80.9458 17.1414C81.8005 17.1414 82.6162 17.1414 83.5097 17.1414C83.3932 16.7179 83.1989 16.3328 82.927 15.9863L82.6162 15.6397C82.3443 15.5242 82.1112 15.4472 81.8393 15.4087L82.1501 14.4461C82.6162 14.5616 83.0824 14.7541 83.5097 14.9466C84.3255 13.7915 84.7139 12.3668 84.6751 10.9806V10.4801C84.5586 10.4416 84.6363 10.3646 84.5586 10.3646C84.4032 9.51747 84.0147 8.70887 83.432 8.05429C83.432 8.05429 83.432 8.05428 83.432 8.09279C83.432 8.24681 83.5486 8.43933 83.432 8.59335C83.3155 8.70887 83.1601 8.74737 83.0047 8.67036C82.6162 8.32382 82.2666 7.97728 81.917 7.55372C81.4897 7.01466 80.8681 6.66811 80.1689 6.62961C79.897 6.62961 79.6639 6.62961 79.4308 6.74512C79.4308 6.74512 79.4308 6.74512 79.4308 6.78363C79.8193 6.86064 80.1689 7.01466 80.5185 7.24569C80.9458 7.59223 81.2566 8.05429 81.412 8.59335C81.1012 8.51634 80.8293 8.40083 80.5185 8.36232C80.5574 8.32382 80.635 8.28531 80.635 8.2083C80.5962 8.1313 80.4797 8.1698 80.402 8.13129H80.3243C80.3243 8.24681 80.4408 8.32382 80.5185 8.36232C80.4408 8.36232 80.3631 8.32382 80.2466 8.28531C80.2854 8.24681 80.2466 8.1698 80.2077 8.1698C80.13 8.1698 80.0135 8.13129 79.9358 8.1698H79.9747C79.897 8.2083 79.8193 8.1698 79.7416 8.1698C79.7804 8.1698 79.7804 8.13129 79.7804 8.05429C79.7027 8.01578 79.5473 8.05429 79.5473 7.93877V7.97728C79.5085 7.97728 79.4696 7.93877 79.4308 7.97728C79.4308 8.01578 79.4308 8.09279 79.5085 8.09279H79.5862C79.0423 8.05428 78.4985 7.90027 77.9546 7.82326C78.0712 7.63073 78.1877 7.43821 78.3431 7.28419C78.11 6.86064 77.8381 6.47559 77.5273 6.09054L76.9058 5.28194C76.7892 5.20493 76.6727 5.05091 76.5561 5.05091C76.3619 4.9354 76.1288 4.81989 75.8958 4.74288C75.6238 3.81876 75.2742 2.93315 74.8857 2.08605L75.2742 2.4711L76.5173 3.66474L76.9835 4.04979C76.9835 4.20381 76.9835 4.39633 77.0612 4.55035C77.1389 4.74288 77.2165 4.8969 77.3719 5.05091C77.7604 5.62849 78.1877 6.16755 78.615 6.74512C78.6539 6.78363 78.7316 6.86064 78.6927 6.89914C78.7704 6.89914 78.8093 6.78363 78.9258 6.70662C79.1589 6.5526 79.4308 6.47559 79.7027 6.39858C79.7027 6.36008 79.7027 6.32157 79.7027 6.28307C79.7027 6.28307 79.625 6.28307 79.6639 6.24456C79.5085 6.20606 79.2366 6.12905 79.2366 5.89802V5.35895C79.12 5.01241 78.8481 4.70437 79.0035 4.31932C79.0035 4.31932 79.0035 4.24231 79.0423 4.20381C79.0423 4.16531 79.12 4.1268 79.12 4.0883C79.12 3.89577 78.8481 3.70325 79.0035 3.51072C79.0035 3.51072 79.0423 3.43371 79.0035 3.39521H78.8869C78.8869 3.01016 78.9646 2.58661 79.0423 2.20156C79.12 2.04754 79.2754 1.93203 79.4308 1.85502C79.8581 1.701 80.3631 1.6625 80.7904 1.54698C80.7904 1.54698 80.8293 1.54698 80.8681 1.54698C80.9847 1.43147 81.1789 1.27745 81.3731 1.35446" fill="#ED1639"></path>
  <path d="M81.2961 1.43148C81.4127 1.54699 81.6069 1.66251 81.6846 1.81652C81.6069 1.81652 81.5681 1.77802 81.4515 1.77802C81.1796 1.66251 80.8688 1.624 80.6357 1.54699C80.83 1.43148 81.0631 1.624 81.2184 1.43148C81.2184 1.39297 81.335 1.43148 81.335 1.46998" fill="black"></path>
  <path d="M81.5288 1.89354C81.8395 2.04756 82.1503 2.24008 82.3834 2.47111C82.4611 2.58663 82.3834 2.81766 82.3834 2.97167V3.47224C82.3834 3.51074 82.4222 3.58775 82.4611 3.66476C82.4611 3.35672 82.4999 3.04868 82.5388 2.74065C82.5388 2.74065 82.5388 2.74065 82.5388 2.70214C82.5776 2.70214 82.6165 2.77915 82.6165 2.81766C82.6165 3.1642 82.6165 3.51074 82.5388 3.85728C82.5388 3.85728 82.4999 3.85728 82.4999 3.81878C82.4999 3.78027 82.4611 3.81878 82.4611 3.78027C82.3834 3.70327 82.3057 3.62625 82.228 3.54925C82.1115 3.43373 81.9949 3.31822 81.8784 3.2027C81.7618 3.08719 81.6064 3.01018 81.4511 2.93317C81.0626 2.74065 80.6741 2.58663 80.2468 2.54812C80.0137 2.54812 79.8195 2.54812 79.5864 2.54812C79.6641 2.24008 79.7418 1.93205 79.7807 1.62401C80.1691 1.547 80.5576 1.5855 80.9461 1.66251L81.4511 1.85504L81.5288 1.89354Z" fill="black"></path>
  <path d="M79.742 1.70099C79.7031 2.00903 79.6254 2.31706 79.5477 2.6251H79.3535C79.3535 2.35557 79.4312 2.04753 79.5089 1.778C79.5477 1.73949 79.6254 1.70099 79.7031 1.70099" fill="black"></path>
  <path d="M79.0812 2.08604L78.9647 2.74062C78.9258 2.74062 78.887 2.81763 78.8481 2.77913C78.8481 2.50959 78.9258 2.27857 78.9647 2.00903C79.0035 2.00903 79.0812 2.00903 79.0424 2.04754" fill="black"></path>
  <path d="M75.2357 2.62516C75.7019 3.08721 76.1292 3.54927 76.5954 3.93432C76.6731 3.93432 76.5954 3.97282 76.6342 4.04983C76.8285 4.66591 77.1392 5.24348 77.5277 5.74404C77.5277 5.78255 77.4888 5.74404 77.4888 5.74404C77.4888 5.74404 77.45 5.78255 77.4112 5.78255C77.0227 5.20498 76.6731 4.66591 76.2458 4.16535C76.0515 3.85731 75.8573 3.58778 75.6242 3.31824C75.7407 3.62628 75.8961 3.97282 76.0127 4.31937C76.0127 4.35787 75.9738 4.39638 75.8961 4.35787C75.8184 4.35787 75.7796 4.24236 75.7019 4.12684L75.0804 2.50964H75.0415C75.0804 2.50964 75.158 2.50964 75.158 2.62516" fill="black"></path>
  <path d="M81.3344 3.01016C81.3344 3.12568 81.4121 3.24119 81.4121 3.3182C81.4898 3.74175 81.5286 4.20381 81.4121 4.66587C81.3732 4.81989 81.2955 4.97391 81.2178 5.12793C81.1013 5.28194 81.0236 5.47447 80.8294 5.55148C80.5574 5.82101 80.169 5.85952 79.8194 5.7055C79.6251 5.7055 79.5863 5.32045 79.3532 5.51297C79.3532 5.55148 79.2755 5.62849 79.2367 5.66699C79.1978 5.62849 79.2367 5.43596 79.2367 5.39746C79.2367 5.28194 79.392 5.28194 79.5086 5.24344H79.7028C79.664 5.16643 79.6251 5.08942 79.5863 5.01241C79.5086 5.01241 79.392 5.01241 79.2755 5.01241C79.2755 5.01241 79.1978 5.01241 79.159 5.01241C79.159 5.01241 79.159 4.97391 79.159 4.9354C79.2755 4.85839 79.4309 4.81989 79.5474 4.81989C79.5863 4.81989 79.664 4.81989 79.7417 4.81989H79.9747C79.9747 4.8969 80.0524 4.9354 80.0913 4.9354C80.0913 4.9354 80.0913 4.8969 80.0913 4.85839C80.0524 4.85839 80.0524 4.62736 79.9359 4.74288C79.7028 4.74288 79.5474 4.51185 79.3532 4.66587C79.2755 4.66587 79.2367 4.58886 79.159 4.66587H79.1201C79.1201 4.66587 79.159 4.55035 79.1978 4.47334C79.2755 4.47334 79.392 4.51185 79.4309 4.43484V4.39633C79.5474 4.39633 79.7417 4.51185 79.7805 4.39633C79.7805 4.31933 79.7417 4.24232 79.664 4.20381C79.5474 4.20381 79.4309 4.28082 79.3144 4.24231C79.2367 4.20381 79.159 4.16531 79.1201 4.0883C79.159 3.85727 79.2755 3.66474 79.3532 3.43372C79.392 3.43372 79.4697 3.43372 79.5474 3.43372C79.5863 3.54923 79.7805 3.58773 79.8582 3.66474C79.9359 3.66474 80.0136 3.74175 80.0913 3.70325C80.0913 3.70325 80.1301 3.70325 80.169 3.70325C80.169 3.58773 80.0136 3.54923 80.0136 3.39521C79.9747 3.39521 80.0136 3.24119 80.0136 3.39521C80.2467 3.35671 80.4798 3.39521 80.674 3.51073C80.4409 3.39521 80.2855 3.20269 80.0136 3.24119H79.9747C80.2078 3.04867 80.5186 3.24119 80.7517 3.2797C80.5186 3.12568 80.2855 3.01016 80.0136 2.97166C79.8582 2.97166 79.7028 3.04867 79.5474 3.08717C79.4697 3.04867 79.4309 2.97166 79.4309 2.85614C79.4309 2.85614 79.4309 2.84331 79.4309 2.81764C79.664 2.74063 79.8971 2.70213 80.169 2.74063C80.5574 2.74063 80.9459 2.81764 81.2567 3.01016" fill="black"></path>
  <path d="M81.7631 3.24159C81.7242 3.24159 81.6462 3.31887 81.5682 3.28023C81.5682 3.24159 81.4513 3.16431 81.5292 3.12567C81.6072 3.16431 81.7631 3.12567 81.7631 3.24159Z" fill="black"></path>
  <path d="M82.2283 3.62692C82.1503 3.66556 82.1113 3.62692 82.1113 3.54964V3.43372C82.1893 3.43372 82.2283 3.54964 82.2673 3.62692" fill="black"></path>
  <path d="M81.8785 3.47223C81.8785 3.47223 81.9175 3.54951 81.9175 3.58815C81.9175 3.58815 81.8785 3.58815 81.8005 3.62679C81.7616 3.62679 81.7226 3.51087 81.6836 3.51087C81.7226 3.43359 81.8005 3.51087 81.8785 3.51087" fill="black"></path>
  <path d="M81.6838 3.58777C81.6838 3.62627 81.7227 3.62627 81.7227 3.70328C81.6838 3.70328 81.6061 3.70328 81.6061 3.66478C81.6061 3.62627 81.5673 3.62627 81.6061 3.62627C81.645 3.62627 81.7227 3.62627 81.7227 3.62627" fill="black"></path>
  <path d="M82.1889 3.85727C82.1889 3.93428 82.0724 3.89578 82.0335 3.89578C81.9947 3.89578 81.9558 3.81877 81.917 3.78027C81.917 3.78027 81.9947 3.74176 82.0335 3.74176C82.1112 3.74176 82.1501 3.81877 82.2278 3.85727" fill="black"></path>
  <path d="M81.8794 3.9346V4.05052C81.8014 4.05052 81.6455 4.05052 81.6455 3.9346C81.6455 3.9346 81.6455 3.85731 81.6845 3.85731C81.7625 3.81867 81.8014 3.85731 81.8794 3.89596" fill="black"></path>
  <path d="M82.4612 4.01129C82.4612 4.0498 82.3835 4.0883 82.3447 4.12681C82.267 4.12681 82.1893 4.12681 82.1116 4.0883H82.0728C82.1504 4.0883 82.1893 4.0883 82.267 4.0883C82.267 4.0883 82.267 4.0498 82.267 4.01129C82.3835 4.01129 82.4224 4.01129 82.4612 4.0883" fill="black"></path>
  <path d="M81.7225 4.16551C81.7225 4.16551 81.7225 4.16551 81.6836 4.16551C81.6836 4.13957 81.6966 4.13957 81.7225 4.16551Z" fill="black"></path>
  <path d="M82.1506 4.24231V4.31932C82.1118 4.35783 82.0341 4.35783 81.9564 4.31932C81.9175 4.28082 81.8787 4.20381 81.8398 4.1653C81.9175 4.1268 82.0341 4.1653 82.1118 4.20381H82.1895L82.1506 4.24231Z" fill="black"></path>
  <path d="M80.0142 4.12683C80.0531 4.16534 80.1696 4.12683 80.2084 4.24235C80.325 4.35786 80.2473 4.55038 80.4027 4.6659C80.4027 4.6659 80.4027 4.7044 80.4027 4.74291L80.2861 4.62739C80.2473 4.51188 80.1696 4.51188 80.0531 4.43487C80.0531 4.31935 80.0142 4.24235 79.9365 4.12683H79.9754H80.0142Z" fill="#ED1639"></path>
  <path d="M82.501 4.16537C82.501 4.16537 82.462 4.16537 82.501 4.20401H82.54V4.28129C82.501 4.35857 82.423 4.28129 82.3061 4.28129H82.2671C82.2671 4.16537 82.384 4.20401 82.384 4.16537C82.384 4.16537 82.423 4.12673 82.462 4.16537H82.501Z" fill="black"></path>
  <path d="M81.8406 4.35785H81.8796C81.8796 4.39649 81.8016 4.43513 81.7626 4.47377C81.7626 4.47377 81.7237 4.43513 81.6847 4.47377C81.6847 4.43513 81.6067 4.39649 81.6457 4.35785C81.6847 4.35785 81.8016 4.35785 81.8406 4.35785Z" fill="black"></path>
  <path d="M82.3447 4.47333L82.1894 4.62735C82.1117 4.62735 82.034 4.58884 81.9951 4.51183C82.034 4.47333 82.1117 4.47333 82.2282 4.43482C82.267 4.31931 82.3059 4.43482 82.3836 4.43482" fill="black"></path>
  <path d="M82.0344 4.66586H82.0733C82.0344 4.70437 81.9567 4.78138 81.879 4.74287C81.7625 4.74287 81.8013 4.62736 81.7236 4.58885C81.7625 4.51184 81.8402 4.58885 81.9567 4.58885H81.9956L82.0344 4.66586Z" fill="black"></path>
  <path d="M82.4234 4.62738C82.5013 4.62738 82.4234 4.7433 82.4234 4.85922C82.4234 4.89786 82.3454 4.85922 82.3064 4.85922L82.1895 4.78194C82.2674 4.66602 82.3844 4.70466 82.4234 4.62738Z" fill="black"></path>
  <path d="M81.6467 4.8202H81.7636C81.7246 4.89748 81.6466 4.93612 81.5687 4.89748C81.5687 4.89748 81.4907 4.89748 81.4907 4.85884C81.4907 4.8202 81.5297 4.8202 81.5297 4.74292C81.5687 4.74292 81.6467 4.74292 81.6467 4.8202Z" fill="black"></path>
  <path d="M82.3055 4.93542C82.3055 4.97392 82.1889 4.97392 82.1501 5.05093C82.1112 5.05093 81.9947 5.05093 81.917 4.97392C81.9558 4.93542 82.0335 4.93542 82.0724 4.89691C82.1501 4.89691 82.2278 4.89691 82.3055 4.93542Z" fill="black"></path>
  <path d="M82.4234 5.16695C82.4234 5.20559 82.4234 5.28287 82.3844 5.28287C82.3064 5.28287 82.2284 5.24423 82.1895 5.16695C82.1895 5.16695 82.2674 5.16695 82.3064 5.12831L82.3844 5.01239C82.4234 5.01239 82.3844 5.12831 82.4234 5.16695Z" fill="black"></path>
  <path d="M81.9172 5.0894H82.0338C81.9949 5.16641 81.9949 5.20491 81.9172 5.20491C81.8007 5.16641 81.6453 5.16641 81.6064 5.01239C81.6841 5.01239 81.8007 5.01239 81.8395 5.0509H81.9172V5.0894Z" fill="black"></path>
  <path d="M81.6074 5.24372C81.5294 5.24372 81.4124 5.35964 81.3734 5.28236C81.3734 5.28236 81.3345 5.24372 81.3345 5.20508C81.3345 5.20508 81.3345 5.16644 81.3734 5.16644C81.4514 5.16644 81.4904 5.20508 81.5684 5.28236" fill="black"></path>
  <path d="M82.189 5.39745C82.189 5.39745 82.1502 5.43596 82.1502 5.47446C82.0725 5.47446 81.9948 5.47446 81.9171 5.47446C81.9171 5.43596 81.8006 5.43596 81.8783 5.35895C81.9948 5.35895 82.1113 5.35895 82.2279 5.35895L82.189 5.39745Z" fill="black"></path>
  <path d="M81.8008 5.55145C81.7231 5.58996 81.6454 5.62846 81.5677 5.55145C81.5677 5.55145 81.4512 5.51295 81.4512 5.43594C81.49 5.39743 81.6066 5.43594 81.6843 5.43594C81.6843 5.47444 81.7619 5.51295 81.8008 5.55145Z" fill="black"></path>
  <path d="M82.3067 5.66756C82.3067 5.78348 82.2287 5.7062 82.1897 5.7062C82.1117 5.7062 82.0728 5.66756 82.0728 5.59028C82.0728 5.59028 82.1507 5.59028 82.1897 5.59028C82.2287 5.59028 82.2287 5.513 82.3067 5.513C82.3067 5.59028 82.3067 5.62892 82.3067 5.66756Z" fill="black"></path>
  <path d="M81.4512 5.62846C81.4512 5.62846 81.49 5.62846 81.4512 5.66696C81.3735 5.70547 81.2958 5.74397 81.2181 5.70547C81.2181 5.66696 81.1016 5.70547 81.1016 5.58995C81.1793 5.51294 81.3346 5.58995 81.4123 5.58995" fill="black"></path>
  <path d="M81.9951 5.744C81.9951 5.82101 81.9563 5.85952 81.8786 5.85952C81.8009 5.85952 81.6844 5.82101 81.6455 5.744C81.6455 5.744 81.7232 5.7055 81.762 5.744C81.8009 5.78251 81.8009 5.744 81.8786 5.744C81.9174 5.744 81.9174 5.66699 81.9951 5.66699V5.7055" fill="black"></path>
  <path d="M81.1787 5.85953C81.1787 5.89803 81.2176 5.89803 81.1787 5.97504C81.0622 5.97504 80.9068 6.01355 80.8291 5.89803C80.8291 5.85953 80.868 5.85953 80.9068 5.85953C80.9068 5.85953 80.9456 5.85953 81.0233 5.85953C81.0233 5.85953 81.0622 5.78252 81.101 5.82102C81.101 5.82102 81.1399 5.82102 81.1399 5.85953" fill="black"></path>
  <path d="M81.529 5.8595C81.529 5.8595 81.6455 5.8595 81.6455 5.898C81.6455 5.97501 81.529 5.97501 81.4124 6.01352C81.4124 5.97501 81.2959 5.93651 81.2959 5.898C81.2959 5.82099 81.4124 5.93651 81.529 5.898" fill="black"></path>
  <path d="M82.2672 5.93651C82.2672 5.97501 82.2672 6.05202 82.1895 6.05202C82.1118 6.05202 82.0341 6.05202 81.9564 6.05202C81.9564 6.05202 81.8787 6.01352 81.9564 5.93651C82.0341 5.93651 82.1506 5.8595 82.2283 5.8595V5.93651H82.2672Z" fill="black"></path>
  <path d="M77.7609 5.97506C77.9939 6.2446 78.1882 6.55263 78.3824 6.82217C78.3824 6.82217 78.3435 6.93768 78.2659 6.93768C78.0328 6.62964 77.7997 6.32161 77.6055 6.01357C77.6055 6.01357 77.6055 5.97506 77.6443 6.01357C77.6443 5.93656 77.722 5.93656 77.7609 6.01357" fill="black"></path>
  <path d="M80.8687 6.05205C80.8687 6.09056 80.791 6.12906 80.7521 6.16757C80.6744 6.16757 80.519 6.16757 80.519 6.09056C80.519 6.05205 80.7133 6.09056 80.7133 6.09056C80.7133 6.09056 80.8687 5.93654 80.8687 6.05205Z" fill="black"></path>
  <path d="M81.8789 6.16754C81.7624 6.28306 81.607 6.28306 81.5293 6.16754C81.5681 6.12904 81.6458 6.05203 81.6458 6.12904C81.7235 6.12904 81.8012 6.01352 81.8789 6.12904V6.20605V6.16754Z" fill="black"></path>
  <path d="M81.335 6.12907C81.2573 6.20607 81.1796 6.24458 81.1019 6.28308C81.0631 6.24458 80.9854 6.24458 80.9854 6.16757C81.063 6.16757 81.1019 6.16757 81.1796 6.16757C81.2184 6.12906 81.2961 6.09056 81.335 6.16757" fill="black"></path>
  <path d="M82.2275 6.24454C82.2275 6.36005 82.111 6.28304 82.0333 6.32155C81.9945 6.32155 81.9168 6.32155 81.8779 6.32155C81.8779 6.28304 81.9945 6.28304 82.0333 6.20603C82.0722 6.24454 82.2275 6.09052 82.2275 6.24454Z" fill="black"></path>
  <path d="M80.3255 6.32156C80.3255 6.32156 80.3255 6.33439 80.3255 6.36006C80.2867 6.36006 80.2478 6.36006 80.209 6.32156C80.209 6.28305 80.2478 6.32156 80.2867 6.32156H80.3255Z" fill="black"></path>
  <path d="M81.6072 6.43712C81.5684 6.51413 81.4907 6.47562 81.413 6.51413C81.3741 6.47562 81.2964 6.47562 81.2188 6.39861C81.2576 6.3216 81.3741 6.39861 81.4518 6.36011C81.4907 6.36011 81.6849 6.36011 81.5684 6.47562" fill="black"></path>
  <path d="M80.9854 6.36009C80.9854 6.39859 80.9077 6.36009 80.9077 6.4371C80.83 6.39859 80.7134 6.39859 80.6357 6.32159C80.7134 6.32159 80.7911 6.28308 80.8688 6.28308C80.8688 6.28308 81.0242 6.28308 80.9854 6.36009Z" fill="black"></path>
  <path d="M82.4224 6.43707V6.47558C82.4224 6.55259 82.3447 6.59109 82.3058 6.6296C82.2281 6.6296 82.1116 6.6296 82.0728 6.51408C82.1116 6.39857 82.267 6.51408 82.3058 6.39857C82.3058 6.36006 82.3447 6.36006 82.3835 6.39857" fill="black"></path>
  <path d="M81.9555 6.47558C81.9944 6.47558 81.9555 6.59109 81.9944 6.59109C81.8778 6.59109 81.7613 6.59109 81.6836 6.55259C81.6836 6.51408 81.6836 6.43707 81.7224 6.43707C81.839 6.43707 81.8778 6.55259 81.9555 6.43707" fill="black"></path>
  <path d="M81.335 6.59111C81.2573 6.62961 81.1796 6.66812 81.1019 6.62961L80.9854 6.5526C81.0242 6.5526 81.1019 6.5526 81.1019 6.5141C81.1796 6.5141 81.2573 6.5526 81.335 6.59111Z" fill="black"></path>
  <path d="M81.6838 6.70659C81.6838 6.82211 81.5673 6.7066 81.4896 6.7836C81.4507 6.7836 81.373 6.7836 81.373 6.7451C81.373 6.7451 81.4119 6.7066 81.4507 6.66809C81.4896 6.66809 81.5284 6.66809 81.5673 6.66809H81.6838V6.70659Z" fill="black"></path>
  <path d="M82.5014 6.82265C82.5014 6.86129 82.4624 6.93857 82.3844 6.89993C82.3065 6.89993 82.2285 6.86129 82.2285 6.78401C82.2675 6.70673 82.3845 6.78401 82.4234 6.66809C82.4624 6.66809 82.4624 6.74537 82.5014 6.82265Z" fill="black"></path>
  <path d="M82.1119 6.74512C82.0729 6.78376 82.1509 6.86104 82.1119 6.89968C82.0729 6.89968 81.995 6.89968 81.995 6.89968L81.917 6.78376C81.956 6.78376 81.995 6.78376 82.0339 6.78376C82.0339 6.78376 82.1119 6.78376 82.1509 6.78376" fill="black"></path>
  <path d="M79.5474 6.82214C79.5474 6.82214 79.5863 6.89915 79.5474 6.93766L79.392 7.05317C79.2755 7.05317 79.159 7.01467 79.1201 6.89915C79.1201 6.86065 79.159 6.89915 79.1978 6.89915C79.3532 6.89915 79.4309 6.82214 79.5474 6.86065" fill="black"></path>
  <path d="M78.8892 6.78363C78.8892 6.86091 78.8112 6.82227 78.7722 6.86091C78.7332 6.86091 78.6553 6.86091 78.6553 6.86091C78.6553 6.86091 78.6553 6.82227 78.6943 6.82227H78.8892V6.78363Z" fill="black"></path>
  <path d="M81.8405 7.01496C81.8015 7.0536 81.7235 7.09225 81.6846 7.05361C81.6846 7.05361 81.5676 7.01496 81.6066 6.93768C81.6456 6.93768 81.7235 6.93768 81.7625 6.93768L81.8405 7.01496Z" fill="black"></path>
  <path d="M80.0147 7.01465C80.0147 7.05315 80.0147 7.13016 79.9758 7.13016C79.8593 7.13016 79.7427 7.13016 79.665 7.13016H79.7427C79.7427 7.13016 79.8204 7.09166 79.8593 7.05315C79.8981 7.01465 79.9758 7.05315 80.0535 7.05315L80.0147 7.01465Z" fill="black"></path>
  <path d="M82.6948 7.01482C82.6948 7.05346 82.6948 7.0921 82.6948 7.13074C82.6169 7.0921 82.4609 7.13074 82.4609 7.01482C82.4609 7.01482 82.4609 7.01482 82.4999 7.01482C82.5389 6.93753 82.6169 7.01482 82.6948 7.01482Z" fill="black"></path>
  <path d="M78.6164 7.05327C78.6164 7.07903 78.6034 7.10479 78.5774 7.13055C78.5384 7.13055 78.4604 7.13055 78.4604 7.05327C78.4994 7.01463 78.5774 7.01463 78.6554 7.05327" fill="black"></path>
  <path d="M82.1119 7.05316C82.1119 7.0918 82.1119 7.13044 82.0339 7.16908C82.0339 7.20772 81.956 7.16908 81.917 7.16908C81.917 7.05316 82.0339 7.0918 82.1119 7.05316Z" fill="black"></path>
  <path d="M79.1206 7.09167C79.0818 7.09167 79.0429 7.16868 79.0041 7.20719C78.9264 7.20719 78.8487 7.13018 78.771 7.13018C78.8875 7.16868 79.0041 7.01467 79.0818 7.05317H79.1206V7.09167Z" fill="black"></path>
  <path d="M82.3452 7.16885C82.2673 7.28477 82.1893 7.20749 82.1113 7.20749C82.1113 7.20749 82.1503 7.09157 82.2283 7.13021H82.2673C82.3062 7.09157 82.2673 7.13021 82.3062 7.13021" fill="black"></path>
  <path d="M80.3248 7.2457C80.3248 7.2457 80.3248 7.2457 80.3636 7.2457C80.2471 7.36122 80.0529 7.32271 79.9363 7.28421H79.8975C79.9752 7.16869 80.1305 7.2457 80.1694 7.13019C80.2471 7.13019 80.3636 7.13019 80.3248 7.2457Z" fill="black"></path>
  <path d="M79.6258 7.2072C79.6258 7.32271 79.5092 7.28421 79.4704 7.32271C79.4315 7.28421 79.315 7.2457 79.2373 7.2072C79.2762 7.1687 79.3539 7.2072 79.3927 7.2072C79.4315 7.2072 79.5481 7.13019 79.6258 7.2072Z" fill="black"></path>
  <path d="M78.4988 7.32278C78.4598 7.32278 78.4988 7.36142 78.4988 7.36142C78.4598 7.36142 78.3818 7.36142 78.3818 7.32278C78.4208 7.28414 78.4988 7.32278 78.5378 7.32278" fill="black"></path>
  <path d="M82.8892 7.43859C82.8502 7.43859 82.7722 7.43859 82.7722 7.39995C82.7332 7.39995 82.6943 7.39995 82.6553 7.36131C82.6553 7.36131 82.6553 7.36131 82.6943 7.36131C82.7332 7.36131 82.7722 7.28403 82.8112 7.36131C82.8502 7.39995 82.8892 7.47723 82.8502 7.51587" fill="black"></path>
  <path d="M82.1118 7.36146C82.0729 7.36146 82.0728 7.43874 81.9949 7.4001C81.9169 7.36146 81.8779 7.36146 81.8779 7.28418C81.9169 7.28418 81.9949 7.28418 82.0339 7.28418C82.0728 7.28418 82.0729 7.36146 82.1118 7.36146Z" fill="black"></path>
  <path d="M79.0049 7.36119C78.9272 7.36119 78.8495 7.4767 78.7718 7.39969C78.733 7.36119 78.6941 7.32268 78.6553 7.28418C78.7718 7.32268 78.8884 7.36119 79.0049 7.36119Z" fill="black"></path>
  <path d="M82.5006 7.39972C82.5006 7.39972 82.5785 7.43836 82.5785 7.51564C82.5396 7.55428 82.4616 7.51564 82.3836 7.51564C82.3836 7.51564 82.3057 7.477 82.3057 7.43836C82.3057 7.39972 82.4226 7.43836 82.4616 7.43836" fill="black"></path>
  <path d="M80.0141 7.47672C80.0141 7.51522 79.8976 7.47672 79.8976 7.55373C79.8199 7.59223 79.7422 7.55373 79.6645 7.47672C79.6257 7.43822 79.6645 7.39971 79.7034 7.36121C79.8199 7.36121 79.8976 7.47672 80.0141 7.47672Z" fill="black"></path>
  <path d="M80.5586 7.43823C80.5586 7.43823 80.5586 7.47674 80.5975 7.55375C80.5975 7.63076 80.4809 7.59225 80.4421 7.63076C80.3644 7.63076 80.2867 7.59225 80.209 7.55375C80.209 7.55375 80.209 7.54091 80.209 7.51524H80.3255C80.4421 7.55375 80.4421 7.36122 80.5586 7.51524V7.43823Z" fill="black"></path>
  <path d="M79.4309 7.47674C79.4309 7.47674 79.4697 7.47674 79.5086 7.47674V7.55375C79.4309 7.55375 79.3143 7.55375 79.2367 7.55375C79.1978 7.55375 79.159 7.51524 79.1201 7.47674C79.1201 7.43823 79.159 7.43823 79.1978 7.43823C79.2755 7.43823 79.3532 7.47674 79.4309 7.47674Z" fill="black"></path>
  <path d="M83.0449 7.51545C83.0449 7.51545 83.0449 7.55409 83.0449 7.59273C83.0449 7.63137 83.0449 7.59273 83.006 7.59273C82.967 7.59273 82.889 7.55409 82.811 7.51545C82.889 7.47681 83.006 7.39953 83.0449 7.51545Z" fill="black"></path>
  <path d="M82.3452 7.63108C82.3452 7.66972 82.2283 7.63108 82.1893 7.63108C82.1503 7.63108 82.1503 7.59244 82.1113 7.55379C82.1113 7.51515 82.2283 7.55379 82.2283 7.55379L82.3452 7.63108Z" fill="black"></path>
  <path d="M78.1493 7.59222C78.1493 7.59222 78.1493 7.63073 78.1493 7.66923C78.1104 7.66923 78.0327 7.66923 78.0327 7.63073C78.0327 7.55372 78.1104 7.63073 78.1493 7.63073" fill="black"></path>
  <path d="M78.6166 7.63082C78.6166 7.63082 78.6166 7.7081 78.5387 7.7081C78.4997 7.7081 78.4217 7.7081 78.3438 7.63082C78.4217 7.59218 78.4997 7.63082 78.5777 7.63082" fill="black"></path>
  <path d="M75.663 7.63073C76.2457 7.63073 76.8672 7.66923 77.4499 7.74624C77.4499 7.78475 77.5276 7.78475 77.5665 7.74624C78.7319 7.90026 79.8973 8.1698 81.0238 8.51634C81.6065 8.67036 82.1892 8.90139 82.7719 9.17092C82.8108 9.20942 82.8496 9.28643 82.8108 9.32494C82.5777 10.4801 82.4223 11.5967 82.1504 12.7134C82.0727 13.2139 81.9173 13.7145 81.8396 14.1765C81.8396 14.1765 81.8396 14.215 81.8007 14.215C81.6454 15.2162 81.218 16.1788 80.5965 16.9489C80.5577 16.9489 80.5965 16.9874 80.5577 17.0259C79.5865 18.181 78.188 18.9511 76.6341 19.1437C75.7407 18.4121 75.0414 17.4879 74.6141 16.4098C74.2645 15.4857 74.1479 14.5231 74.2256 13.522C74.3422 12.2898 74.653 11.0962 74.886 9.90251C74.9249 9.864 74.886 9.74849 74.9249 9.67148C75.0803 8.9784 75.2745 8.28531 75.391 7.59222C75.4299 7.59222 75.5076 7.59222 75.6241 7.59222H75.5464L75.663 7.63073Z" fill="#ED1639"></path>
  <path d="M80.247 7.70772C80.247 7.70772 80.3247 7.70772 80.3635 7.74622C80.3635 7.78473 80.247 7.74622 80.2081 7.78473C80.1304 7.78473 80.0916 7.70772 80.0527 7.66921C80.0527 7.66921 80.0916 7.63071 80.1304 7.66921C80.1304 7.66921 80.2081 7.70772 80.2858 7.70772" fill="black"></path>
  <path d="M79.1206 7.66925C79.1595 7.66925 79.1206 7.70776 79.1206 7.74626C79.0429 7.78477 78.9264 7.82327 78.8098 7.74626C78.8098 7.74626 78.771 7.74626 78.8098 7.70775C78.8098 7.70775 78.771 7.70776 78.771 7.66925C78.8875 7.66925 79.0041 7.66925 79.1206 7.66925Z" fill="black"></path>
  <path d="M82.8881 7.70774C82.8104 7.78475 82.6939 7.70774 82.6162 7.70774C82.6939 7.59222 82.7328 7.63073 82.8493 7.59222C82.8493 7.59222 82.927 7.63073 82.927 7.70774" fill="black"></path>
  <path d="M79.8196 7.70774C79.8973 7.70774 79.8584 7.82326 79.9361 7.82326C79.9361 7.90027 79.8584 7.82326 79.8196 7.86176C79.703 7.82326 79.5865 7.78475 79.5088 7.66924C79.5088 7.66924 79.5865 7.59223 79.6253 7.66924C79.6642 7.66924 79.7419 7.66924 79.7807 7.66924" fill="black"></path>
  <path d="M80.791 7.9003C80.6745 7.93881 80.5191 7.93881 80.4414 7.8233C80.5191 7.74629 80.6356 7.82329 80.7133 7.78479C80.7133 7.78479 80.8299 7.82329 80.8299 7.9003" fill="black"></path>
  <path d="M82.54 7.86188C82.501 7.86188 82.462 7.86188 82.423 7.90052C82.384 7.90052 82.3061 7.90052 82.2671 7.86188C82.2671 7.7846 82.384 7.86188 82.462 7.82324H82.54V7.86188Z" fill="black"></path>
  <path d="M83.1606 7.90071C83.1216 7.97799 83.0436 7.90071 82.9657 7.90071C82.9657 7.90071 82.8877 7.90071 82.8877 7.86207C82.8877 7.78479 83.0046 7.86207 83.0046 7.82343H83.0436C83.0826 7.70751 83.0826 7.82343 83.1606 7.82343V7.90071Z" fill="black"></path>
  <path d="M76.6731 7.8618L78.1881 8.01582C78.0716 8.74741 77.8774 9.479 77.722 10.2106C77.722 10.2106 77.6831 10.2106 77.6831 10.2491C76.8673 10.1336 76.0904 10.0566 75.3135 9.97956C75.3135 9.97956 75.3135 9.94106 75.3135 9.90255C75.43 9.24797 75.5854 8.59339 75.7408 7.9003C75.7408 7.9003 75.7408 7.82329 75.7408 7.78479C76.0516 7.82329 76.4012 7.8618 76.7119 7.8618" fill="black"></path>
  <path d="M82.812 8.01602C82.734 8.05466 82.617 8.05466 82.5391 8.01602C82.5391 8.01602 82.5391 8.01602 82.5391 7.97738C82.617 7.97738 82.773 7.9001 82.812 8.01602Z" fill="black"></path>
  <path d="M80.9847 8.1313V8.16981H81.0235C81.0235 8.16981 81.0235 8.20831 80.9847 8.16981C80.8681 8.28532 80.7516 8.16981 80.5962 8.16981C80.5962 8.16981 80.635 8.1313 80.5962 8.0928C80.7127 8.0928 80.8293 8.05429 80.907 8.0928L80.9847 8.1313Z" fill="black"></path>
  <path d="M83.2389 8.20857C83.2389 8.20857 83.2389 8.28585 83.1999 8.24721C83.1219 8.24721 83.1219 8.16993 83.0439 8.16993C83.0439 8.13129 83.1219 8.16993 83.1609 8.13129C83.1609 8.13129 83.2389 8.13129 83.2389 8.20857Z" fill="black"></path>
  <path d="M82.8894 8.16988C82.8894 8.20852 82.9673 8.2858 83.0063 8.2858C82.9673 8.2858 82.8894 8.2858 82.8504 8.2858C82.8114 8.2858 82.6944 8.2858 82.7334 8.16988C82.7724 8.13124 82.8504 8.16988 82.8894 8.16988Z" fill="black"></path>
  <path d="M79.3539 8.67037V8.9014C79.3539 9.01691 79.2762 9.20944 79.1208 9.28644C79.0431 9.86402 79.0043 10.4031 78.8877 10.8651C79.2374 10.9807 79.5481 11.1347 79.8201 11.3272C79.8201 11.4427 79.7812 11.5582 79.7812 11.6352C79.5093 11.5197 79.2374 11.4042 78.9654 11.3272C78.4993 11.2117 78.0331 11.1732 77.5281 11.0962C77.3727 11.0962 77.2562 11.1347 77.1396 11.0962C77.1396 10.9807 77.1397 10.8651 77.1785 10.7111C77.567 10.6726 77.9166 10.6341 78.305 10.7111C78.3827 10.6341 78.3439 10.4801 78.4216 10.4031C78.5381 10.018 78.6547 9.55598 78.7712 9.17093C78.7712 9.09392 78.6547 9.09392 78.6935 9.01691C78.6158 8.97841 78.6935 8.9014 78.6935 8.78588C78.6935 8.63186 78.9266 8.51635 79.0431 8.47784C79.1985 8.47784 79.3151 8.55485 79.3928 8.70887" fill="black"></path>
  <path d="M82.5397 9.3249C82.5008 9.51742 82.5397 9.70994 82.462 9.90247C82.3843 10.4415 82.2678 10.9806 82.2289 11.5582C82.1901 11.5582 82.1124 11.5197 82.0735 11.5197C81.8016 11.4427 81.5297 11.3271 81.2578 11.2501C80.7139 11.0961 80.17 10.9421 79.665 10.7881C79.665 10.7881 79.665 10.7881 79.665 10.7496C79.7816 10.6341 79.7427 10.48 79.7816 10.326C79.8981 9.70994 80.0535 9.09387 80.2089 8.5163C81.0247 8.74732 81.8405 9.05536 82.6174 9.40191" fill="black"></path>
  <path d="M84.598 9.74847C84.5591 9.82548 84.5203 9.74847 84.4814 9.74847H84.5591" fill="black"></path>
  <path d="M84.7153 10.0953C84.7153 10.1339 84.7154 10.2112 84.5984 10.2112C84.5594 10.2112 84.4814 10.2112 84.4814 10.1339C84.4814 10.0953 84.5594 10.0953 84.5204 10.018C84.5594 10.0566 84.6764 10.018 84.7153 10.0953Z" fill="black"></path>
  <path d="M84.8699 10.4801C84.831 10.5186 84.8699 10.5956 84.7922 10.6726C84.7145 10.6726 84.6368 10.6726 84.5591 10.6341C84.5591 10.5186 84.6756 10.5186 84.7922 10.4801C84.7922 10.4801 84.831 10.4801 84.8699 10.4801Z" fill="black"></path>
  <path d="M85.0256 10.8267C85.0256 10.9422 84.9868 10.9422 84.9868 11.0577C84.9091 11.0577 84.7925 11.0577 84.7148 10.9807C84.7148 10.8652 84.8314 10.9422 84.9479 10.8652C84.9479 10.8652 85.0256 10.7882 85.0645 10.8652" fill="black"></path>
  <path d="M84.7926 11.2506C84.7926 11.3279 84.6756 11.3279 84.6366 11.3665C84.6366 11.3665 84.5977 11.3665 84.5977 11.3279C84.6366 11.3279 84.5977 11.212 84.6366 11.1347C84.7146 11.1347 84.7536 11.212 84.7926 11.2506Z" fill="black"></path>
  <path d="M85.1028 11.4042C85.1028 11.4812 85.0639 11.5197 84.9862 11.5197C84.9085 11.5197 84.8308 11.5197 84.792 11.4042C84.8697 11.3657 85.0251 11.1732 85.1028 11.4042Z" fill="black"></path>
  <path d="M78.4596 11.4812C78.4596 11.4427 78.5373 11.4812 78.5761 11.4812C78.615 11.5582 78.6927 11.5968 78.8092 11.6353C78.8092 11.6738 78.7704 11.9048 78.7704 11.9048L77.9546 15.4087C77.7603 16.2173 77.5661 16.9874 77.2942 17.7575C77.2942 17.796 77.2553 17.8345 77.2553 17.873V17.95C77.1 18.1426 76.9834 18.3351 76.828 18.5276C76.7115 18.2581 76.6338 17.9885 76.6338 17.6805C76.9057 16.1788 77.2553 14.6386 77.5273 13.1754L77.9157 11.4812C77.9934 11.4812 78.0323 11.4042 78.1488 11.4042C78.1488 11.4427 77.8769 12.9059 77.8769 12.9059L77.2165 16.1018C77.1776 16.2943 77.1388 16.4869 77.0999 16.6794C77.5661 14.8697 77.9157 13.0984 78.4207 11.3657L78.4596 11.4812Z" fill="black"></path>
  <path d="M85.0256 11.6738C85.0256 11.6738 85.0256 11.6738 85.0256 11.7123C84.9867 11.7508 84.9091 11.7123 84.8314 11.7508C84.7925 11.7508 84.6371 11.7508 84.7148 11.6353C84.7148 11.6353 84.7148 11.5968 84.7537 11.5968C84.8314 11.6353 84.8702 11.5197 84.9479 11.5968H85.0256V11.6738Z" fill="black"></path>
  <path d="M85.2197 11.9048C85.2197 11.9433 85.2197 11.9818 85.1809 12.0203C85.0644 12.0203 84.9867 12.0203 84.8701 12.0203C84.9867 12.0203 85.0644 11.9048 85.1809 11.8663C85.1809 11.8663 85.2586 11.8663 85.2586 11.9433" fill="black"></path>
  <path d="M84.7146 11.9432C84.7146 11.9432 84.7146 12.0205 84.7536 12.0592C84.7146 12.0592 84.6366 12.0592 84.5977 12.0592C84.5977 12.0592 84.5977 12.0205 84.5977 11.9819C84.5977 11.9046 84.6366 11.9819 84.7146 11.9819" fill="black"></path>
  <path d="M77.2173 12.1743C76.9842 13.1754 76.7899 14.1765 76.5957 15.1391C76.518 15.3702 76.4792 15.6397 76.4015 15.9092C76.2849 16.3328 76.1684 16.8334 76.0907 17.2569C76.0519 17.5649 75.9742 17.9115 75.9742 18.181C74.8865 16.9104 74.3426 15.2162 74.5368 13.5219C74.5368 12.9829 74.6534 12.4438 74.8088 11.9047C75.1195 11.8662 75.4303 11.9047 75.7411 11.9047C76.2072 11.9818 76.7123 12.0973 77.2561 12.1743" fill="black"></path>
  <path d="M85.1416 12.1743C85.1028 12.2898 84.9474 12.2898 84.8308 12.2513C84.8308 12.2128 84.792 12.2128 84.792 12.1358C84.8308 12.0203 84.9474 12.1358 85.0251 12.1358H85.1416V12.1743Z" fill="black"></path>
  <path d="M85.2969 12.3668C85.2969 12.4438 85.258 12.4823 85.1803 12.4823C85.1027 12.4823 85.025 12.4823 84.9473 12.4438C85.025 12.4053 85.1415 12.3283 85.2192 12.2898C85.2192 12.2898 85.2192 12.3283 85.258 12.4053" fill="black"></path>
  <path d="M84.7533 12.4053H84.8699C84.8699 12.4823 84.8699 12.5593 84.831 12.5593C84.7145 12.5593 84.5979 12.5593 84.5591 12.4438V12.3668C84.5979 12.3668 84.6756 12.3668 84.7145 12.3668" fill="black"></path>
  <path d="M85.1416 12.6364C85.0639 12.6749 85.0251 12.8674 84.9085 12.7519C84.9085 12.7519 84.792 12.7519 84.792 12.7134C84.8308 12.7134 84.9085 12.6749 84.9862 12.6364C85.0639 12.6364 85.1028 12.6364 85.1805 12.6364" fill="black"></path>
  <path d="M84.6366 12.6748C84.6366 12.6748 84.5977 12.6748 84.5977 12.7133C84.5589 12.7133 84.52 12.7133 84.52 12.6748C84.52 12.5978 84.5977 12.6363 84.6366 12.6748Z" fill="black"></path>
  <path d="M80.6359 12.9829C81.0244 13.0984 81.374 13.2139 81.7625 13.3679C81.6848 13.5605 81.7625 13.676 81.6848 13.8685C81.5683 14.4846 81.374 15.1007 81.141 15.7167C80.5583 16.7949 79.6259 17.6805 78.5382 18.258C78.2663 18.4121 77.9944 18.5276 77.6836 18.6431C77.6836 18.5661 77.6836 18.4506 77.7224 18.3351V18.5276C77.9555 17.3339 78.2663 16.1788 78.4994 15.0236C78.7325 14.2536 78.8878 13.4064 79.0821 12.6364C79.1209 12.6364 79.1986 12.6364 79.1986 12.6364C79.7036 12.7134 80.1309 12.8674 80.5971 12.9444" fill="black"></path>
  <path d="M85.4136 12.7904C85.4136 12.8677 85.3746 12.9063 85.2966 12.9063C85.2576 12.9063 85.2187 12.9063 85.1797 12.9063C85.2187 12.8677 85.2187 12.7904 85.2966 12.7904C85.3356 12.7904 85.4136 12.7904 85.4526 12.829" fill="black"></path>
  <path d="M84.7145 12.9059C84.7922 12.9059 84.831 12.8289 84.9475 12.9059C84.9475 12.9444 84.831 12.9829 84.7922 13.0214C84.7145 12.9829 84.5591 12.9829 84.5591 12.8289C84.5591 12.7904 84.6756 12.8289 84.7145 12.8674" fill="black"></path>
  <path d="M85.2197 13.0599C85.2197 13.0984 85.2974 13.1754 85.2197 13.1754C85.1809 13.1754 85.142 13.2524 85.0644 13.2139C85.0644 13.1369 84.9478 13.1369 84.8701 13.0984C84.8701 12.9829 84.9867 13.0984 85.1032 13.0214C85.142 13.0214 85.2197 12.9059 85.2586 13.0214" fill="black"></path>
  <path d="M84.5202 13.137C84.5202 13.137 84.5202 13.2143 84.5592 13.2143C84.5202 13.2143 84.4812 13.3302 84.4422 13.253C84.4422 13.253 84.4032 13.2916 84.3643 13.253C84.3643 13.253 84.3643 13.2143 84.3643 13.1757C84.3643 13.1757 84.3643 13.0984 84.4032 13.0984C84.4032 13.137 84.4422 13.137 84.5202 13.0984" fill="black"></path>
  <path d="M85.4536 13.3297C85.4536 13.3683 85.4536 13.4456 85.4146 13.4842C85.3757 13.4842 85.3367 13.4456 85.2977 13.4456L85.2197 13.3683C85.2587 13.3683 85.3367 13.2524 85.4536 13.2524V13.3297Z" fill="black"></path>
  <path d="M84.9475 13.4065C84.9475 13.4835 84.831 13.4835 84.831 13.522C84.7922 13.522 84.7145 13.4835 84.6368 13.4835L84.5591 13.4065C84.5591 13.4065 84.5591 13.3295 84.6368 13.3295C84.7533 13.445 84.9087 13.2525 84.9475 13.4065Z" fill="black"></path>
  <path d="M84.4419 13.5604C84.4807 13.5604 84.5584 13.5989 84.5584 13.5989L84.403 13.6759C84.3253 13.6759 84.2088 13.6374 84.1699 13.5219V13.4834C84.2476 13.5604 84.3253 13.6374 84.403 13.5604" fill="black"></path>
  <path d="M85.2579 13.5989C85.1802 13.5989 85.1413 13.7145 85.0248 13.7145C84.986 13.6759 84.9083 13.6759 84.8306 13.5989C84.8306 13.5989 84.9083 13.5989 84.9471 13.5989C84.9859 13.5989 85.0636 13.5989 85.1413 13.5989C85.1413 13.5989 85.219 13.6374 85.2579 13.6374" fill="black"></path>
  <path d="M85.5293 13.7145C85.5293 13.7915 85.5293 13.83 85.4905 13.907C85.3739 13.907 85.2962 13.907 85.1797 13.907C85.1797 13.7915 85.3351 13.7915 85.4128 13.7145C85.4516 13.7145 85.5293 13.7145 85.5293 13.7145Z" fill="black"></path>
  <path d="M84.9088 13.8685C84.8699 13.9455 84.7922 13.984 84.7145 13.984C84.6368 13.9455 84.4814 13.984 84.5203 13.83C84.598 13.83 84.7145 13.83 84.8311 13.83H84.9088V13.8685Z" fill="black"></path>
  <path d="M84.3258 13.907C84.3258 13.907 84.3646 13.9455 84.3258 13.984C84.2481 14.0225 84.1704 13.984 84.0927 13.984C84.0927 13.984 84.015 13.984 84.0538 13.907C84.1315 13.7915 84.2092 13.9455 84.3258 13.907Z" fill="black"></path>
  <path d="M85.1802 14.061C85.1802 14.061 85.1802 14.061 85.219 14.061C85.1025 14.061 85.1025 14.1766 84.986 14.1766L84.8306 14.061C84.8694 13.984 84.9859 13.9455 85.0636 13.984C85.0636 13.984 85.1413 13.984 85.1802 13.984" fill="black"></path>
  <path d="M84.7139 14.2535C84.5973 14.2535 84.5585 14.369 84.4808 14.292C84.4419 14.2535 84.3643 14.215 84.3643 14.1765C84.442 14.061 84.5973 14.1765 84.675 14.1765C84.675 14.1765 84.675 14.215 84.7139 14.2535Z" fill="black"></path>
  <path d="M84.1714 14.2152C84.2104 14.2152 84.1714 14.2539 84.1714 14.2925C84.0934 14.2925 83.9765 14.2925 83.9375 14.2152V14.1766C83.9765 14.1766 84.0545 14.2152 84.1324 14.2152" fill="black"></path>
  <path d="M85.4912 14.2536C85.4524 14.2921 85.4524 14.3691 85.3747 14.4076C85.297 14.4076 85.2193 14.4076 85.1416 14.3306C85.1804 14.2536 85.3358 14.1381 85.4524 14.2536" fill="black"></path>
  <path d="M83.977 14.4848C83.977 14.4848 83.8991 14.4848 83.8601 14.4848C83.8601 14.4848 83.8211 14.4848 83.8601 14.4461C83.8991 14.4075 84.016 14.4461 84.016 14.4848" fill="black"></path>
  <path d="M84.7911 14.4461C84.8688 14.4461 85.0242 14.4076 85.0242 14.4846V14.5231C84.9854 14.5231 84.9077 14.6001 84.8688 14.5231C84.7523 14.5231 84.6746 14.4846 84.6357 14.4076C84.6357 14.4076 84.6357 14.3306 84.6357 14.3691C84.6746 14.3691 84.7134 14.4076 84.7523 14.4461" fill="black"></path>
  <path d="M84.3647 14.4076C84.4812 14.4076 84.4035 14.5231 84.4812 14.5231C84.4035 14.5231 84.3647 14.6386 84.2482 14.5231C84.2482 14.4461 84.0539 14.4461 84.1316 14.3306C84.2093 14.4076 84.2482 14.3306 84.3647 14.3306" fill="black"></path>
  <path d="M84.1716 14.7547C84.1326 14.7547 84.0156 14.7547 84.0156 14.6387C84.0156 14.6387 84.0156 14.6001 84.0546 14.6001C84.0546 14.716 84.2885 14.6001 84.1716 14.7547Z" fill="black"></path>
  <path d="M83.8597 14.7541C83.8597 14.8696 83.782 14.7541 83.7432 14.7541C83.7432 14.7541 83.7432 14.7156 83.7432 14.6771C83.782 14.6771 83.8209 14.6771 83.8597 14.7156" fill="black"></path>
  <path d="M84.6756 14.7541C84.7144 14.7541 84.7921 14.7156 84.7921 14.7541C84.7144 14.7541 84.5979 14.8696 84.5202 14.7926C84.5202 14.7926 84.4813 14.7156 84.5202 14.6771C84.5202 14.6771 84.5979 14.6771 84.6367 14.6771H84.6756V14.7541Z" fill="black"></path>
  <path d="M84.0941 14.9085C84.0551 14.9857 83.9771 14.9085 83.8992 14.9085C83.8992 14.9085 83.8602 14.8698 83.8992 14.8312C83.9381 14.8312 84.0161 14.8312 84.0941 14.8698" fill="black"></path>
  <path d="M84.4439 14.9468V14.9854C84.3659 14.9854 84.3269 14.9468 84.21 14.9468C84.21 14.9468 84.21 14.9468 84.21 14.9081C84.3269 14.9081 84.3269 14.9468 84.4439 14.9468Z" fill="black"></path>
  <path d="M83.7819 15.1008C83.7819 15.1008 83.7429 15.1008 83.7039 15.1008C83.7039 15.1008 83.665 15.1008 83.626 15.1008C83.626 15.1008 83.626 15.0622 83.665 15.0622C83.7039 15.0622 83.7429 15.0622 83.7819 15.1008Z" fill="black"></path>
  <path d="M84.2875 15.2162C84.7149 15.7938 85.1033 16.4098 85.4918 16.9489C85.3753 16.9489 85.2587 16.9489 85.181 16.9489C84.7926 16.3713 84.4041 15.8708 84.0156 15.3317C84.0156 15.2932 84.0156 15.2162 84.0156 15.2162C84.0933 15.2162 84.171 15.2162 84.2487 15.2162C84.2487 15.2162 84.2487 15.2547 84.2875 15.2162Z" fill="black"></path>
  <path d="M17.5096 5.821V4.81988H21.977V5.821L20.5785 5.93651L17.4708 10.3261C17.4708 10.3261 20.462 14.8311 20.8504 15.4087C21.2777 16.0633 21.5885 16.2558 22.0935 16.2558H22.4043L22.3266 17.2569H16.5773L16.655 16.2558L17.9758 16.1403L15.7227 12.7133C15.7227 12.7133 14.0523 15.1391 13.7026 15.6397C13.3919 16.0633 13.4307 16.2173 13.8969 16.2173H15.1788C15.1788 16.2558 15.14 17.2569 15.14 17.2569H10.3618L10.4784 16.2558L11.8768 16.1403L15.1011 11.5967C15.1011 11.5967 12.343 7.28418 11.838 6.51409C11.5272 6.01352 10.9445 5.70549 10.3618 5.7825V4.78137H16.1888V5.7825L14.8292 5.89801L16.8492 9.24792L18.7527 6.39857C18.9858 6.01352 18.9469 5.85951 18.5973 5.821H17.5485H17.5096Z" fill="black"></path>
  <path d="M36.9712 5.82102C38.8358 5.82102 39.9624 6.55261 39.9624 8.0928C39.9624 9.63299 38.7193 10.5956 36.9323 10.5956H36.8935V5.85952H37.01M42.2543 13.676C41.9824 12.3283 40.9335 11.3272 39.6127 11.0577C39.6127 11.0577 39.6127 11.0577 39.6516 11.0577C41.1278 10.7111 42.7982 9.59448 42.7982 7.97728C42.7982 5.62849 40.5839 4.8584 37.01 4.8584H32.6592V5.85952H32.698C33.5915 5.85952 34.0188 6.4756 34.0577 7.66924V16.2173L32.8146 16.3328L32.7369 17.3339H38.4085L38.4862 16.3328H38.3696C36.9323 16.3328 36.8546 16.3328 36.8546 15.1392V11.7122H36.9323C38.4085 11.7122 39.1466 12.2128 39.4185 13.445C39.535 14.0225 39.6127 14.4846 39.7293 15.1777C40.0789 16.8719 40.6616 17.4109 42.6039 17.4109H43.0701C43.2255 17.4109 43.4586 17.4109 43.4586 17.4109L43.5363 16.4098C42.837 16.4098 42.6428 16.2173 42.5262 15.2932C42.3708 14.3691 42.3709 14.2536 42.2543 13.7145" fill="black"></path>
  <path d="M22.5203 5.82099C23.5303 5.82099 23.9965 6.39856 23.9965 7.59221V16.1403L22.8311 16.2558L22.7534 17.2569H28.8135L28.8911 16.2558H28.5415C26.8711 16.2558 26.7546 16.1403 26.7546 14.8696V11.9047C26.7546 11.9047 26.7934 11.9047 26.8323 11.9047C29.8623 12.5593 32.6593 11.1346 32.6593 8.16978C32.6593 5.20492 30.3673 4.74286 26.8711 4.74286H22.4814V5.78249L22.5203 5.82099ZM26.8323 5.82099C28.6969 5.82099 29.94 6.55258 29.94 8.40081C29.94 10.249 28.6969 11.0961 26.8711 10.9421C26.8711 10.9421 26.8323 10.9421 26.7934 10.9421V5.8595C26.7934 5.8595 26.8064 5.8595 26.8323 5.8595" fill="black"></path>
  <path d="M6.04956 11.5582C6.51572 11.4812 7.02073 11.6737 7.29265 12.0588C7.40919 12.2128 7.52573 12.4053 7.64227 12.5593C7.64227 12.5593 7.64227 12.5593 7.64227 12.5979H8.34151V9.13242H7.48689V9.20943C7.3315 9.97953 7.02072 10.2491 5.85532 10.2491H4.45685V5.93653H7.3315C7.68112 5.93653 7.79766 5.97504 7.83651 6.09055C7.9142 6.32158 7.95305 6.4756 8.14728 6.97616C8.26382 7.2842 8.41921 7.55373 8.61344 7.82326H9.54576L9.19614 4.8584H0.0283203V5.85952H0.0671694C1.15488 5.85952 1.65989 6.24457 1.65989 7.70775V16.1788L0.300252 16.2943L0.222554 17.2954H9.58461L9.97307 13.7915C9.77884 13.753 9.54576 13.7145 9.35152 13.7145C9.15729 13.7145 8.96306 13.83 8.88537 14.0225C8.80767 14.2536 8.65229 14.6001 8.41921 15.1007C8.03074 15.9478 7.56458 16.2173 6.20495 16.2173H4.65108C4.418 16.2173 4.418 16.1018 4.418 15.9478V11.6352H5.97186L6.04956 11.5582Z" fill="black"></path>
  <path d="M54.7634 13.4064C55.2296 13.4064 55.4627 13.5219 55.5792 14.0225C55.9288 15.4857 56.6669 16.4868 58.0654 16.4868C59.1142 16.6023 60.0077 15.8322 60.1243 14.7926C60.1243 14.7156 60.1243 14.6386 60.1243 14.5616C60.1243 13.6375 59.6193 13.0214 57.6381 12.2128C55.5404 11.3657 54.4526 10.1335 54.4526 8.16978C54.4526 6.20604 56.123 4.47333 58.6481 4.47333C59.3862 4.47333 60.1243 4.70436 60.7458 5.12791H60.7846C60.94 5.01239 61.1343 4.89688 61.3285 4.85838C61.5227 4.78137 61.717 4.78136 61.9112 4.81987C61.9112 5.39744 61.9112 5.97501 61.9889 6.55258C62.0277 7.13015 62.1054 7.70773 62.222 8.2853H61.1731C60.5127 6.39856 59.7358 5.58996 58.4538 5.58996C57.5215 5.51295 56.6669 6.16754 56.5892 7.09165C56.5892 7.16866 56.5892 7.24567 56.5892 7.32268C56.5892 8.36231 57.2496 9.01689 58.92 9.63296C61.212 10.4801 62.3385 11.6737 62.3385 13.599C62.3385 15.5242 60.6293 17.5264 58.1431 17.5264C57.2108 17.5649 56.2784 17.2954 55.5015 16.7563C55.3461 16.8719 55.1519 16.9874 54.9576 17.0644C54.6857 17.1799 54.375 17.2184 54.103 17.1799L54.4915 13.2909C54.5692 13.2909 54.6469 13.2909 54.7246 13.2909" fill="black"></path>
  <path d="M49.5969 11.5582C50.1019 11.4812 50.5681 11.6737 50.84 12.0972C50.9566 12.2513 51.0731 12.4438 51.1896 12.5978C51.1896 12.5978 51.1896 12.5978 51.1896 12.6363H51.8889V9.17088H51.0343V9.24789C50.8789 10.018 50.5681 10.2875 49.4027 10.2875H48.0042V5.97498H50.9177C51.2673 5.97498 51.345 6.05199 51.3839 6.16751C51.4616 6.47555 51.5781 6.74508 51.6946 7.01461C51.8112 7.32265 51.9666 7.59218 52.1608 7.86172H53.0931L52.7435 4.89685H43.5757V5.89797H43.6145C44.7022 5.89797 45.2072 6.28302 45.2072 7.78471V16.2943L43.9642 16.4098L43.8865 17.4109H53.1708L53.5593 13.907C53.3651 13.8685 53.132 13.83 52.9377 13.83C52.7435 13.83 52.5493 13.9455 52.4716 14.138C52.3939 14.369 52.2385 14.7156 52.0054 15.2161C51.617 16.0632 51.1508 16.3328 49.7912 16.3328H48.2373C48.0042 16.3328 48.0042 16.2172 48.0042 16.0632V11.7507H49.5192L49.5969 11.5582Z" fill="black"></path>
  <path d="M63.6204 13.4064C64.0865 13.4064 64.3196 13.522 64.4361 14.0225C64.7858 15.4857 65.5238 16.4868 66.9223 16.4868C67.9712 16.6023 68.8647 15.8322 68.9812 14.7926C68.9812 14.7156 68.9812 14.6386 68.9812 14.5616C68.9812 13.6375 68.4762 13.0214 66.495 12.2128C64.3973 11.3657 63.3096 10.1335 63.3096 8.16979C63.3096 6.20605 64.98 4.51184 67.505 4.51184C68.2431 4.51184 68.9812 4.70436 69.6027 5.16642H69.6416C69.797 5.05091 69.9912 4.93539 70.1854 4.89689C70.3797 4.81988 70.5739 4.81988 70.7681 4.85838C70.7681 5.43596 70.7682 6.01353 70.8458 6.5911C70.8847 7.16867 70.9624 7.74624 71.0789 8.32381H70.0301C69.3697 6.43708 68.5927 5.66698 67.3108 5.66698C66.3785 5.55147 65.5627 6.20605 65.4461 7.13016C65.4461 7.20717 65.4461 7.28418 65.4461 7.36119C65.4461 8.40082 66.1065 9.0554 67.7769 9.67148C70.0689 10.5186 71.1955 11.7122 71.1955 13.6375C71.1955 15.5627 69.4862 17.5649 67 17.5649C66.0677 17.6035 65.1354 17.3339 64.3584 16.7949C64.2031 16.9104 64.0088 17.0259 63.8146 17.1029C63.5427 17.2184 63.2319 17.2569 62.96 17.2184L63.3484 13.3294C63.3484 13.3294 63.4261 13.3294 63.5815 13.3294" fill="black"></path>
</svg>
