<?xml version="1.0" encoding="UTF-8"?>
<svg xmlns="http://www.w3.org/2000/svg" width="60" height="15" viewBox="0 0 60 15" fill="none">
  <path d="M59.9609 7.04715C59.8826 3.1904 56.634 0.143568 52.7202 0.25927C48.8063 0.336405 45.7143 3.53751 45.8317 7.39426C45.91 11.1739 49.0802 14.1821 52.9158 14.1821C56.8689 14.105 60 10.9425 60 7.04715M56.5166 7.20142C56.4384 9.09123 54.8337 10.5954 52.9158 10.5182C50.998 10.4411 49.4716 8.85982 49.5499 6.97001C49.6282 5.11877 51.1546 3.65321 53.0333 3.65321C54.9902 3.69178 56.5166 5.27304 56.5166 7.20142ZM45.636 14.1436L42.9354 8.12704C44.1487 7.43282 44.8924 6.12153 44.8532 4.7331C44.8532 1.80197 42.8963 0.297838 40.1174 0.297838H35.3033V14.1821H38.9824V8.43558H39.0215L41.5264 14.1436H45.636ZM41.135 5.08021C41.135 6.35293 40.3131 6.81574 38.9041 6.81574V3.38324C40.274 3.38324 41.135 3.84605 41.135 5.08021ZM31.3503 3.76891H34.2074L33.816 0.297838H25.1272L24.7358 3.76891H27.593V14.1436H31.272V3.76891H31.3503ZM19.8043 10.4797V9.01409H22.6614V5.35018H19.8043V3.88462H24.227L23.6399 0.220703H16.1252V14.105H23.7573L24.6967 10.4411H19.8043V10.4797ZM11.1155 14.1436H14.8337L12.8767 0.25927H9.98043L7.4364 5.62015L4.97065 0.25927H1.99609L0 14.1436H3.7182L4.50098 8.43558H4.57926L7.39726 14.2207L10.2153 8.43558H10.2544L11.0763 14.1436H11.1155Z" fill="black"></path>
</svg>
