<?xml version="1.0" encoding="UTF-8"?>
<svg xmlns="http://www.w3.org/2000/svg" width="97.594" height="124.517" viewBox="0 0 97.594 124.517">
  <g id="Google-Reviews-Elithair" transform="translate(-0.486)">
    <path id="Path_17" data-name="Path 17" d="M88.546,124.517H10.021a9.348,9.348,0,0,1-9.535-9.535V0H98.081V114.982A9.348,9.348,0,0,1,88.546,124.517Z" transform="translate(0)" fill="#fff"></path>
    <g id="Group_3" data-name="Group 3" transform="translate(16.752 9.535)">
      <path id="Path_18" data-name="Path 18" d="M81.863,38.488H50.453v12.34H68.4a15.87,15.87,0,0,1-6.731,10.1l11.218,8.413c6.281-5.81,9.535-14.531,9.535-24.679A36.787,36.787,0,0,0,81.863,38.488Z" transform="translate(-17.361 -10.444)" fill="#4285f4"></path>
      <path id="Path_19" data-name="Path 19" d="M49.926,63.848A19.386,19.386,0,0,1,31.417,50.386L20.2,58.8A33.347,33.347,0,0,0,49.926,77.309,33.007,33.007,0,0,0,72.362,68.9L61.144,61.043C58.141,63.055,54.431,63.848,49.926,63.848Z" transform="translate(-16.834 -10.563)" fill="#34a853"></path>
      <path id="Path_20" data-name="Path 20" d="M30.39,43.253a18.935,18.935,0,0,1,1.122-6.17L20.294,28.67a31.3,31.3,0,0,0-3.365,14.583A33.642,33.642,0,0,0,20.294,58.4l11.218-8.413A21.276,21.276,0,0,1,30.39,43.253Z" transform="translate(-16.929 -10.161)" fill="#fbbc05"></path>
      <path id="Path_21" data-name="Path 21" d="M49.926,23.189c4.917,0,9.426,1.18,12.9,4.487l9.535-9.535c-5.761-5.4-13.426-8.413-22.436-8.413A33.347,33.347,0,0,0,20.2,28.237L31.417,36.65A19.386,19.386,0,0,1,49.926,23.189Z" transform="translate(-16.834 -9.728)" fill="#ea4335"></path>
    </g>
    <g id="Group_4" data-name="Group 4" transform="translate(8.9 82.451)">
      <path id="Path_22" data-name="Path 22" d="M17.758,88.114l-2.244-3.926-1.683,3.926-5.048.561L12.15,92.04l-.561,5.048,3.926-2.244L20,97.088,18.88,92.04l3.365-3.365Z" transform="translate(-8.784 -84.188)" fill="#fbbc05"></path>
      <path id="Path_23" data-name="Path 23" d="M34.975,88.114l-2.244-3.926-2.244,3.926L26,88.675l3.365,3.365-.561,5.048,3.926-2.244,4.487,2.244L36.1,92.04l3.365-3.365Z" transform="translate(-9.175 -84.188)" fill="#fbbc05"></path>
      <path id="Path_24" data-name="Path 24" d="M52.185,88.114l-2.244-3.926L47.7,88.114l-4.487.561,3.365,3.365-1.122,5.048,4.487-2.244,4.487,2.244L53.307,92.04l3.365-3.365Z" transform="translate(-9.558 -84.188)" fill="#fbbc05"></path>
      <path id="Path_25" data-name="Path 25" d="M69.4,88.114l-2.244-3.926-2.244,3.926-4.487.561,3.365,3.365-1.122,5.048,4.487-2.244,3.926,2.244-.561-5.048,3.365-3.365Z" transform="translate(-9.948 -84.188)" fill="#fbbc05"></path>
      <path id="Path_26" data-name="Path 26" d="M91.1,88.675l-5.048-.561-1.683-3.926-2.244,3.926-4.487.561L81,92.04l-1.122,5.048,4.487-2.244,3.926,2.244-.561-5.048Z" transform="translate(-10.331 -84.188)" fill="#fbbc05"></path>
    </g>
    <g id="Group_5" data-name="Group 5" transform="translate(60.623 100.96)">
      <path id="Path_35" data-name="Path 35" d="M69.157,109.7v1.122H67.474v2.244H66.353v-2.244H61.3l6.17-7.852h0V109.7Zm-5.609,0h2.8v-3.365Z" transform="translate(-61.305 -102.965)" fill="#333"></path>
      <path id="Path_36" data-name="Path 36" d="M71.063,112.154c0-.55.031-.561.561-.561s1.122.011,1.122.561a1.242,1.242,0,0,1-1.122,1.122C71.093,113.276,71.063,112.694,71.063,112.154Z" transform="translate(-61.527 -103.179)" fill="#333"></path>
      <path id="Path_37" data-name="Path 37" d="M81.543,107.528c0,2.375-.746,5.609-3.926,5.609a3.641,3.641,0,0,1-3.365-2.244h1.122a2.333,2.333,0,0,0,2.244,1.122c1.541,0,2.883-1.963,2.8-3.926a3.582,3.582,0,0,1-2.8,1.122c-2.061,0-3.365-1.058-3.365-2.8a3.246,3.246,0,0,1,3.365-3.365C80.089,103.021,81.543,104.711,81.543,107.528Zm-1.683-1.122c0-1.217-.446-2.214-1.683-2.244a2.246,2.246,0,0,0-2.244,2.244c0,1.129.485,1.653,1.683,1.683C78.873,108.089,79.821,107.544,79.86,106.406Z" transform="translate(-61.35 -103.04)" fill="#333"></path>
      <path id="Path_38" data-name="Path 38" d="M90.637,109.794a3.246,3.246,0,0,1-3.365,3.365c-2.473,0-3.926-1.858-3.926-5.048,0-2.375,1.3-5.048,4.487-5.048,1.158,0,2.127.044,2.8,1.683l-1.122.561a2.3,2.3,0,0,0-2.244-1.122c-1.551,0-2.342,1.393-2.244,3.365a2.469,2.469,0,0,1,2.244-1.122A3.319,3.319,0,0,1,90.637,109.794Zm-1.122,0a2.386,2.386,0,0,0-2.244-2.244,2.349,2.349,0,0,0-2.244,2.244,2.244,2.244,0,1,0,4.487,0Z" transform="translate(-61.471 -103.063)" fill="#333"></path>
    </g>
    <text id="Elithair" transform="translate(8.459 111)" fill="#333" font-size="11" font-family="Poppins-Medium, Poppins" font-weight="500">
      <tspan x="0" y="0">Elithair</tspan>
    </text>
  </g>
</svg>
