<?xml version="1.0" encoding="UTF-8"?>
<svg xmlns="http://www.w3.org/2000/svg" width="41" height="18" viewBox="0 0 41 18" fill="none">
  <path d="M0.179688 0.49939H40.8522V17.942H0.179688V0.49939Z" fill="#EB1701"></path>
  <path d="M16.6119 5.92855C15.7184 4.19583 13.4653 3.23322 10.2022 3.23322C6.93905 3.23322 3.94786 4.54238 3.94786 6.77565C3.94786 9.00893 5.03557 9.08594 7.36637 9.70201L8.37639 9.97155L9.34756 10.2411L10.3576 10.5106C10.3964 10.5106 10.4741 10.5106 10.5518 10.5876C10.9014 10.7416 11.1345 10.9342 11.1345 11.1652C11.1345 11.6273 10.4353 11.9738 9.42524 11.9738C7.79368 11.9738 6.9779 11.6658 6.51174 10.8572L2.12207 11.4732C3.24862 13.4755 5.61827 14.4766 9.34756 14.4766C13.0768 14.4766 16.0292 12.9364 16.0292 10.7031C16.0292 8.46986 14.7861 8.31584 12.9214 7.85379L12.0668 7.66126L11.2122 7.43023L10.3576 7.23771C10.0856 7.1607 9.89141 7.12219 9.65833 7.04518C9.15332 6.89117 8.92024 6.69864 8.92024 6.42911C8.92024 6.00556 9.50294 5.69752 10.3964 5.69752C11.2899 5.69752 12.4941 6.08257 12.7661 6.73715L16.6896 6.00556L16.6119 5.92855ZM27.722 6.92967H23.7985L22.9439 10.5491C22.672 11.7428 22.0504 12.3588 21.1958 12.3588C20.3412 12.3588 20.4965 12.1663 20.4965 11.8198C20.4965 11.4732 20.4966 11.6273 20.6131 11.0882L21.6231 6.92967H17.6607L16.573 11.5117C16.4565 12.0508 16.3788 12.5129 16.3788 12.7439C16.3788 13.7065 17.583 14.4381 19.1369 14.4381C20.6908 14.4381 21.6619 14.0145 22.6331 12.8979L22.2835 14.2456H26.0128L27.722 6.92967ZM28.5767 6.92967L26.8286 14.2456H30.6355L31.6844 9.85603C31.8786 9.08594 32.3836 8.70089 33.1606 8.70089C33.9375 8.70089 34.1317 8.89341 34.1317 9.27846C34.1317 9.66351 34.0929 9.625 34.0152 9.85603L33.0052 14.2456H36.9287L38.0941 9.23996C38.1718 8.97042 38.2106 8.73939 38.2106 8.50837C38.2106 7.43023 37.0064 6.69864 35.2583 6.69864C33.5102 6.69864 32.4613 7.1992 31.8786 8.12332L32.1506 6.92967H28.5378H28.5767ZM21.7008 4.23434H22.4389L22.5554 3.69527H20.1469L20.0304 4.23434H20.7685L20.3412 6.08257H21.3123L21.7396 4.23434H21.7008ZM24.3812 5.11995L24.1481 6.08257H25.1193L25.6632 3.69527H24.692L24.4978 4.58088H23.6431L23.8374 3.69527H22.8662L22.3223 6.08257H23.2935L23.5266 5.11995H24.4201H24.3812ZM28.1105 5.50499H26.5955L26.712 5.08144H27.9163L28.0328 4.58088H26.8286L26.9063 4.19583H28.3436L28.4601 3.69527H26.0516L25.5078 6.08257H27.9551L28.0717 5.5435L28.1105 5.50499Z" fill="white"></path>
</svg>
